<svg width="201" height="193" viewBox="0 0 201 193" fill="none" xmlns="http://www.w3.org/2000/svg">
<path d="M200.644 56.431C200.644 129.582 100.322 167.203 100.322 167.203C100.322 167.203 0 129.582 0 56.431C0 25.2477 24.2377 0 54.1738 0C73.6763 0 90.7712 10.743 100.322 26.8361C109.872 10.743 126.967 0 146.47 0C176.406 0 200.644 25.2477 200.644 56.431Z" fill="#F7263F"/>
<path d="M200.644 56.4286C200.644 129.582 100.322 167.203 100.322 167.203C100.322 167.203 60.1027 152.121 30.5938 122.483C129.779 151.773 165.77 93.3471 165.77 49.6832C165.77 15.8795 141.707 5.58458 130.204 2.59404C135.339 0.907674 140.804 0 146.47 0C176.404 0 200.644 25.2477 200.644 56.4286Z" fill="#CC1F3C"/>
<path d="M61.645 13.5034C44.3223 11.7874 8.32305 13.9056 13.3807 62.437C13.577 64.3207 16.2045 64.6063 16.8093 62.8115C21.1227 50.0076 32.9372 25.6671 61.9966 16.9473C63.8445 16.3926 63.565 13.6935 61.645 13.5034Z" fill="#FF7683"/>
<path d="M100.322 193C135.28 193 163.62 189.15 163.62 184.401C163.62 179.652 135.28 175.802 100.322 175.802C65.363 175.802 37.0234 179.652 37.0234 184.401C37.0234 189.15 65.363 193 100.322 193Z" fill="#DBDBDB"/>
</svg>
