<svg width="255" height="256" viewBox="0 0 255 256" fill="none" xmlns="http://www.w3.org/2000/svg">
<rect width="255" height="256" rx="35" fill="#F1F1F5"/>
<path d="M158.395 112.193C158.395 159.369 93.6977 183.63 93.6977 183.63C93.6977 183.63 29 159.369 29 112.193C29 92.083 44.631 75.8008 63.9367 75.8008C76.514 75.8008 87.5385 82.729 93.6977 93.1074C99.8569 82.729 110.881 75.8008 123.459 75.8008C142.764 75.8008 158.395 92.083 158.395 112.193Z" fill="#F7263F"/>
<path d="M158.396 112.192C158.396 159.369 93.6984 183.63 93.6984 183.63C93.6984 183.63 67.7608 173.904 48.7305 154.79C112.695 173.679 135.906 136 135.906 107.842C135.906 86.0415 120.388 79.4023 112.969 77.4737C116.281 76.3861 119.805 75.8008 123.459 75.8008C142.764 75.8008 158.396 92.083 158.396 112.192Z" fill="#CC1F3C"/>
<path d="M68.7551 84.5091C57.5837 83.4024 34.3677 84.7685 37.6294 116.066C37.756 117.281 39.4505 117.465 39.8405 116.308C42.6222 108.051 50.2414 92.3535 68.9819 86.7301C70.1735 86.3724 69.9933 84.6317 68.7551 84.5091Z" fill="#FF7683"/>
<path d="M203.6 139.013C203.6 175.325 153.8 194 153.8 194C153.8 194 104 175.325 104 139.013C104 123.533 116.032 111 130.892 111C140.573 111 149.059 116.333 153.8 124.322C158.541 116.333 167.027 111 176.708 111C191.568 111 203.6 123.533 203.6 139.013Z" fill="#F7263F"/>
<path d="M203.601 139.011C203.601 175.325 153.801 194 153.801 194C153.801 194 133.836 186.513 119.188 171.801C168.423 186.34 186.289 157.338 186.289 135.663C186.289 118.883 174.345 113.772 168.634 112.288C171.183 111.451 173.896 111 176.709 111C191.568 111 203.601 123.533 203.601 139.011Z" fill="#CC1F3C"/>
<path d="M134.6 117.703C126.001 116.852 108.131 117.903 110.642 141.994C110.739 142.929 112.043 143.071 112.344 142.18C114.485 135.824 120.35 123.742 134.775 119.413C135.692 119.138 135.553 117.798 134.6 117.703Z" fill="#FF7683"/>
<path d="M225.698 67.1962C225.698 90.7839 193.349 102.915 193.349 102.915C193.349 102.915 161 90.7839 161 67.1962C161 57.1411 168.815 49 178.468 49C184.757 49 190.269 52.4641 193.349 57.6533C196.428 52.4641 201.941 49 208.229 49C217.882 49 225.698 57.1411 225.698 67.1962Z" fill="#F7263F"/>
<path d="M225.698 67.1954C225.698 90.7839 193.349 102.915 193.349 102.915C193.349 102.915 180.38 98.0516 170.865 88.4949C202.847 97.9392 214.453 79.0998 214.453 65.0204C214.453 54.1204 206.694 50.8008 202.985 49.8364C204.64 49.2927 206.403 49 208.23 49C217.882 49 225.698 57.1411 225.698 67.1954Z" fill="#CC1F3C"/>
<path d="M180.877 53.3544C175.291 52.8011 163.683 53.4841 165.314 69.1331C165.377 69.7405 166.224 69.8326 166.419 69.2538C167.81 65.1252 171.62 57.2766 180.99 54.4649C181.586 54.286 181.496 53.4157 180.877 53.3544Z" fill="#FF7683"/>
</svg>
